<svg width="197" height="197" viewBox="0 0 197 197" fill="none" xmlns="http://www.w3.org/2000/svg">
<g filter="url(#filter0_di_371_3997)">
<rect x="5" y="1" width="187" height="187" rx="25" fill="url(#paint0_linear_371_3997)"/>
</g>
<path d="M52 47C52 46.4477 52.4477 46 53 46H143C143.552 46 144 46.4477 144 47V136.793C144 137.346 143.552 137.793 143 137.793H124.401C122.752 137.793 121.134 138.247 119.724 139.104L98 152.318L76.2759 139.104C74.8664 138.247 73.2485 137.793 71.5988 137.793H53C52.4477 137.793 52 137.346 52 136.793V47Z" stroke="white" stroke-width="8"/>
<path d="M98.7318 89.2602C104.474 89.2602 109.143 84.6128 109.143 78.8625C109.143 73.1122 104.474 68.4648 98.7318 68.4648C92.9898 68.4648 88.3208 73.1122 88.3208 78.8625C88.3208 84.6128 92.9898 89.2602 98.7318 89.2602Z" stroke="white" stroke-width="8"/>
<path d="M76 106H121" stroke="white" stroke-width="8" stroke-linecap="round"/>
<path d="M76 120H121" stroke="white" stroke-width="8" stroke-linecap="round"/>
<defs>
<filter id="filter0_di_371_3997" x="0" y="0" width="197" height="197" filterUnits="userSpaceOnUse" color-interpolation-filters="sRGB">
<feFlood flood-opacity="0" result="BackgroundImageFix"/>
<feColorMatrix in="SourceAlpha" type="matrix" values="0 0 0 0 0 0 0 0 0 0 0 0 0 0 0 0 0 0 127 0" result="hardAlpha"/>
<feOffset dy="4"/>
<feGaussianBlur stdDeviation="2.5"/>
<feComposite in2="hardAlpha" operator="out"/>
<feColorMatrix type="matrix" values="0 0 0 0 0 0 0 0 0 0 0 0 0 0 0 0 0 0 0.15 0"/>
<feBlend mode="normal" in2="BackgroundImageFix" result="effect1_dropShadow_371_3997"/>
<feBlend mode="normal" in="SourceGraphic" in2="effect1_dropShadow_371_3997" result="shape"/>
<feColorMatrix in="SourceAlpha" type="matrix" values="0 0 0 0 0 0 0 0 0 0 0 0 0 0 0 0 0 0 127 0" result="hardAlpha"/>
<feOffset dy="2"/>
<feGaussianBlur stdDeviation="1"/>
<feComposite in2="hardAlpha" operator="arithmetic" k2="-1" k3="1"/>
<feColorMatrix type="matrix" values="0 0 0 0 1 0 0 0 0 1 0 0 0 0 1 0 0 0 0.15 0"/>
<feBlend mode="normal" in2="shape" result="effect2_innerShadow_371_3997"/>
</filter>
<linearGradient id="paint0_linear_371_3997" x1="98.5" y1="1" x2="98.5" y2="188" gradientUnits="userSpaceOnUse">
<stop stop-color="#8B8F4E"/>
<stop offset="1" stop-color="#9BA05D"/>
</linearGradient>
</defs>
</svg>
